# xmcd
#
# Track frame offsets:
#	182
#	13567
#	27440
#	38365
#	52485
#	68822
#	82742
#	95817
#	107257
#	119105
#
# Disc length: 1799 seconds
#
# Revision: 2
# Processed by: cddbd v1.5.1PL0 Copyright (c) Steve Scherf et al.
# Submitted via: audiograbber 1.81.03
#
DISCID=7d07050a
DTITLE=Various Artist - The Miller Lite Soul Experience
DYEAR=1988
DGENRE=Pop
TTITLE0=Percy Sledge - When A Man Loves A Woman
TTITLE1=Ben E King - Stand By Me
TTITLE2=The Tams - Hey Girl Don't Bother Me
TTITLE3=Jimmy Ruffin - What Becomes Of The Broken Hearted
TTITLE4=Harold Melvin and The Blue Notes - The Love I Lost
TTITLE5=People's Choice - Do It Anyway You Wanna
TTITLE6=The Fanatics - Something Old Something New
TTITLE7=Robert Knight - Love On A Mountain Top
TTITLE8=The Drifters - Save The Last Dance For Me
TTITLE9=Ruby Winters - I Will
EXTD=
EXTT0=
EXTT1=
EXTT2=
EXTT3=
EXTT4=
EXTT5=
EXTT6=
EXTT7=
EXTT8=
EXTT9=
PLAYORDER=
